<?xml version="1.0" encoding="utf-8"?>
<!-- Svg Vector Icons : http://www.onlinewebfonts.com/icon -->
<!DOCTYPE svg PUBLIC "-//W3C//DTD SVG 1.1//EN" "http://www.w3.org/Graphics/SVG/1.1/DTD/svg11.dtd">
<svg version="1.1" xmlns="http://www.w3.org/2000/svg" xmlns:xlink="http://www.w3.org/1999/xlink" x="0px" y="0px" viewBox="0 0 1000 1000" enable-background="new 0 0 1000 1000" xml:space="preserve">
<metadata> Svg Vector Icons : http://www.onlinewebfonts.com/icon </metadata>
<g><path d="M581.4,712C530.5,761.7,115,840.3,115,840.3s8.3,30.6,35,35C176.7,879.6,593,747,593,747S632.3,662.3,581.4,712z M476.4,432.2c-2.3-46.9-79.7-186.1-112.6-228.9c-33-42.8,25.8-74.5,93.3-46.6c67.5,27.9,124.3,240.6,124.3,240.6l23.3-11.7c0,0-35.6-213.1-147.6-252.3c-74-25.9-147.4,6.8-116.6,93.3c10.6,29.7,64.9,54.8,70,93.3c2.8,21.4,57.6,87.5,46.6,116.6C437.2,489.1,10,653.7,10,653.7l11.7,35C59.4,679.4,479.8,500.4,476.4,432.2z M802.9,245.6c-107.9-46.9-198.2,81.6-198.2,81.6c2.4,24,11.2,19.6,42.7-9.9c85.3-80.1,125.9-38,178.8-13.4c56.1,26,140.6,262.3,128.3,314.8C931.7,715.8,795.6,741.5,733,758.7c-62.6,17.1-67.7-29.2-70-58.3c-2.2-29.2-66.7-50.1-81.6-104.9c-14.9-54.9,104.9-93.3,104.9-93.3s37.5-47.1-35-23.3c-88.9,29.2-132.6,111.5-35,198.2c20.5,18.3-24.9,117.3,81.6,116.6c106.5-0.7,283.8-68.8,291.5-174.9C997.5,508.2,910.8,292.5,802.9,245.6z"/></g>
</svg>